<svg width="20" height="20" viewBox="0 0 20 20" fill="none" xmlns="http://www.w3.org/2000/svg">
<path fill-rule="evenodd" clip-rule="evenodd" d="M19.5986 3.78394C19.4648 3.26379 19.2845 2.8008 19.0518 2.4064C18.8191 2.012 18.5282 1.67476 18.185 1.40612C17.8418 1.13175 17.4287 0.897399 16.9575 0.71449C16.4805 0.53158 15.9279 0.388682 15.3229 0.291512C14.7062 0.194341 13.9616 0.120034 13.1123 0.068591C12.2397 0.0228637 11.2449 0 10.1687 0C9.15649 0 8.20826 0.0285796 7.34729 0.0857388C6.52123 0.142898 5.78243 0.228637 5.16579 0.337239C4.54916 0.451558 3.98487 0.617319 3.4904 0.828808C2.99011 1.04601 2.54218 1.31466 2.16405 1.62904C1.78592 1.94341 1.45433 2.34353 1.18092 2.80652C0.907504 3.28094 0.686446 3.82967 0.511926 4.44698C0.17452 5.68734 0 7.36782 0 9.44841C0 10.6087 0.0290867 11.5976 0.08726 12.4778C0.145433 13.381 0.232693 14.1698 0.354857 14.8214C0.471204 15.4787 0.63409 16.0789 0.849331 16.599C1.05876 17.1135 1.32635 17.565 1.62885 17.9423L1.67539 17.9994C1.97208 18.3424 2.33857 18.6453 2.75742 18.9025C3.20535 19.1655 3.72309 19.377 4.29319 19.5313C4.88074 19.6856 5.56719 19.8057 6.3409 19.88C7.13787 19.96 8.02792 20 8.9936 20C10.0175 20 10.954 19.9829 11.7859 19.9543C12.5945 19.9257 13.2926 19.88 13.8511 19.8228C14.4212 19.7599 14.9273 19.6742 15.3519 19.5656C15.7882 19.457 16.1606 19.3141 16.4631 19.154C16.7656 18.994 17.0448 18.7882 17.2833 18.5424C17.4287 18.3995 17.5509 18.2395 17.6789 18.0509C17.7371 17.9594 17.7545 17.868 17.7196 17.7594C17.6905 17.6508 17.6265 17.5765 17.5218 17.5307L16.2304 16.9363C16.0791 16.8677 15.9104 16.902 15.7999 17.022C15.7359 17.0906 15.6777 17.1535 15.6079 17.2106C15.4683 17.3307 15.3229 17.4278 15.1716 17.5079L14.7411 17.7365V17.6851C14.7062 17.6965 14.6713 17.7079 14.6364 17.7193C14.4328 17.7765 14.2118 17.8222 13.9791 17.8565C13.7405 17.8908 13.4671 17.9194 13.1646 17.9423C12.8563 17.9651 12.5305 17.9823 12.1815 17.9937C11.8208 18.0051 11.3671 18.0109 10.8202 18.0166C10.3607 18.0166 9.72077 18.0223 8.88889 18.0223C8.04537 18.0223 7.28912 17.988 6.6434 17.9194C5.98604 17.8508 5.42176 17.7422 4.96219 17.605C4.50262 17.4678 4.0954 17.2792 3.76382 17.0506C3.42641 16.8219 3.153 16.5476 2.93775 16.2275C2.72833 15.9017 2.55381 15.5359 2.43165 15.1358C2.30366 14.7299 2.21059 14.2784 2.16405 13.7982C2.11169 13.3181 2.07679 12.7122 2.0477 11.9463C2.02443 11.2261 2.0128 10.3515 2.0128 9.33981C2.0128 8.45384 2.03607 7.65361 2.08261 6.95627C2.12914 6.25321 2.19895 5.68734 2.29203 5.21863C2.37929 4.75564 2.51891 4.33838 2.69924 3.984C2.90867 3.63532 3.12973 3.33238 3.39732 3.09231L3.48458 3.01801C3.72891 2.81223 4.03141 2.63504 4.38627 2.49214C4.77022 2.33781 5.22397 2.22349 5.73008 2.14347C6.23037 2.06916 6.847 2.012 7.60326 1.97199C8.35951 1.93198 9.22048 1.91483 10.1687 1.91483C11.1576 1.91483 12.0302 1.92626 12.7632 1.95484C13.4671 1.97771 14.0838 2.02344 14.5841 2.08059C15.0669 2.13204 15.4916 2.22349 15.8464 2.34353C16.2129 2.46928 16.5212 2.62932 16.7656 2.81795C17.0157 3.00657 17.2251 3.25807 17.388 3.54959C17.5451 3.82967 17.6672 4.17834 17.7545 4.57273C17.9116 5.36153 17.993 6.5333 17.993 8.14518C17.993 8.88825 17.9814 9.53415 17.9581 10.0657C17.9348 10.6259 17.8941 11.0717 17.8418 11.4204C17.7952 11.7634 17.7254 12.0663 17.644 12.3121L17.5684 12.5064C17.5218 12.6093 17.4753 12.6951 17.4229 12.7694V12.7808L17.3473 12.8665C17.1204 13.118 16.7772 13.2438 16.3409 13.2438C16.1373 13.2438 15.9686 13.2209 15.829 13.1695C15.7126 13.1295 15.6137 13.078 15.5381 13.0094L15.4799 12.958C15.3927 12.8608 15.3229 12.7694 15.2763 12.6836L15.2414 12.6093C15.2065 12.5293 15.1832 12.4493 15.1658 12.3692C15.1483 12.2606 15.1309 12.112 15.1134 11.9234C15.096 11.7576 15.0785 11.5233 15.0611 11.2318V4.72707C15.0611 4.53272 14.8924 4.36696 14.6946 4.36696H12.74C12.5364 4.36696 12.3735 4.52701 12.3735 4.72707V5.69877L11.8674 5.16719C11.7394 5.03001 11.6114 4.92141 11.4834 4.82995C11.3205 4.71563 11.1518 4.62418 10.9831 4.55559C10.8086 4.48128 10.6225 4.42984 10.4247 4.38983C10.2269 4.35553 10.0058 4.32695 9.77894 4.3098C9.53461 4.29265 9.27865 4.28122 9.00523 4.28122C8.4235 4.28122 7.90576 4.3441 7.45782 4.46413C7.01571 4.58417 6.63758 4.76708 6.3409 5.01286C6.03258 5.25865 5.78243 5.54444 5.58464 5.86453C5.39267 6.18462 5.24724 6.54473 5.15998 6.93341C5.07272 7.32209 5.00291 7.76222 4.95637 8.28808C4.90983 8.78537 4.89238 9.33981 4.89238 9.97428C4.89238 10.5516 4.91565 11.1003 4.96219 11.6033C5.00291 12.0777 5.07272 12.5179 5.16579 12.9065C5.25887 13.2724 5.4043 13.6096 5.59628 13.9068C5.79407 14.2041 6.03839 14.4498 6.33508 14.6728C6.63758 14.8843 7.00989 15.05 7.44619 15.1529C7.88831 15.2615 8.40605 15.3129 8.9936 15.3129C9.45317 15.3129 9.88365 15.2787 10.2734 15.2101C10.6515 15.1415 10.9948 15.0386 11.2973 14.9014C11.5939 14.7642 11.8615 14.5642 12.0884 14.3127C12.1873 14.2041 12.2804 14.084 12.3618 13.9526L12.6527 13.4953L12.8738 13.9869C12.9378 14.124 12.9959 14.2269 13.0541 14.3184C13.2286 14.5756 13.4497 14.7642 13.7173 14.8785C13.9791 15.0043 14.2932 15.0957 14.6597 15.1586C15.3694 15.2787 16.3002 15.2787 17.0099 15.17C17.3589 15.1129 17.6614 15.0329 17.9174 14.93C18.1792 14.8214 18.4119 14.6785 18.6213 14.4899C18.8191 14.3127 18.9936 14.1012 19.1332 13.8668L19.1565 13.8268C19.3077 13.5696 19.4357 13.2609 19.5462 12.9008C19.6568 12.5522 19.7382 12.1463 19.8022 11.7005C19.8662 11.2546 19.9127 10.7288 19.9476 10.1343C19.9767 9.49414 19.9942 8.81966 19.9942 8.12804C19.9942 7.21921 19.9593 6.38468 19.8953 5.65876C19.8371 4.94999 19.7324 4.32123 19.5986 3.78394ZM12.4258 10.1172C12.4258 10.523 12.4142 10.8774 12.3909 11.1803C12.3677 11.489 12.3269 11.7576 12.2804 11.9806C12.228 12.2035 12.1408 12.3921 12.0186 12.5579C11.9023 12.7179 11.7452 12.8551 11.5474 12.9694L11.4718 13.0094C11.2914 13.1066 11.0704 13.1752 10.8028 13.2266C10.4945 13.2838 10.1396 13.3124 9.7324 13.3124C9.395 13.3124 9.09831 13.2838 8.84817 13.2324C8.60384 13.1752 8.39441 13.0952 8.23153 12.9809C8.06864 12.8722 7.93485 12.7351 7.83013 12.5807C7.72542 12.4264 7.65561 12.2606 7.60907 12.0606C7.56254 11.8548 7.53345 11.6205 7.516 11.3575C7.49273 11.1003 7.48109 10.7974 7.48109 10.4544V9.0483C7.48109 8.57388 7.516 8.14518 7.59162 7.77937C7.65561 7.45927 7.74869 7.19063 7.87085 6.97914V6.97342L7.91739 6.89911C8.06283 6.67048 8.30715 6.499 8.63293 6.3904C8.96451 6.27608 9.38918 6.22464 9.90692 6.22464C10.3665 6.22464 10.7621 6.27608 11.0878 6.37896L11.2856 6.45327C11.5183 6.55044 11.7103 6.68762 11.8557 6.84767L11.9314 6.93341C12.0826 7.12775 12.199 7.37925 12.2804 7.67648L12.292 7.71649C12.3793 8.0423 12.4258 8.4367 12.4258 8.89397V10.1172Z" fill="#207793"/>
</svg>
