<svg width="20" height="20" viewBox="0 0 20 20" fill="none" xmlns="http://www.w3.org/2000/svg">
<path d="M17.06 2.91556C15.1156 0.981111 12.74 0 10 0C7.23444 0 4.85222 0.982222 2.91889 2.91667C0.982222 4.85111 0 7.23556 0 10C0 12.7389 0.981111 15.1144 2.91556 17.06C4.85 19.0111 7.23333 20 10 20C12.7411 20 15.1167 19.0111 17.0622 17.0633C19.0122 15.1156 20 12.7389 20 10C20 7.23556 19.0111 4.85111 17.06 2.91556ZM15.4911 15.4922C14.2278 16.7578 12.7844 17.4789 11.1111 17.6978V12.2222H13.3333V10H11.1111V8.44445C11.1111 8.3568 11.1284 8.27002 11.162 8.18907C11.1955 8.10811 11.2447 8.03457 11.3068 7.97265C11.3688 7.91073 11.4424 7.86164 11.5234 7.82821C11.6044 7.79477 11.6912 7.77763 11.7789 7.77778H13.3333V5.55556H11.7811C10.9567 5.55556 10.2689 5.85889 9.71778 6.46889C9.16667 7.07667 8.88889 7.81889 8.88889 8.7V10H6.66667V12.2222H8.88889V17.7C7.19778 17.4833 5.74889 16.7611 4.49222 15.4956C2.96444 13.9578 2.22222 12.16 2.22222 10C2.22222 7.81556 2.96333 6.01333 4.49111 4.48889C6.01333 2.96333 7.81556 2.22222 10 2.22222C12.1611 2.22222 13.9578 2.96444 15.4944 4.49222C17.0311 6.01667 17.7778 7.81889 17.7778 10C17.7778 12.1567 17.03 13.9544 15.4911 15.4922Z" fill="#207793"/>
</svg>
