<svg width="20" height="20" viewBox="0 0 20 20" fill="none" xmlns="http://www.w3.org/2000/svg">
<path d="M10.0008 0C7.28264 0 6.94389 0.013125 5.88014 0.058125C4.81201 0.110625 4.08951 0.27625 3.45201 0.52375C2.7848 0.775638 2.18055 1.17001 1.68139 1.67938C1.1706 2.17737 0.776012 2.78196 0.525764 3.45C0.278264 4.0875 0.112639 4.81 0.0601392 5.87812C0.0120142 6.9425 0.00201416 7.28063 0.00201416 9.99875C0.00201416 12.7169 0.0151392 13.0556 0.0601392 14.1194C0.112639 15.1844 0.278264 15.91 0.525764 16.5475C0.777652 17.2147 1.17202 17.819 1.68139 18.3181C2.17939 18.8289 2.78397 19.2235 3.45201 19.4738C4.08951 19.7181 4.81514 19.8869 5.88014 19.9394C6.94451 19.9875 7.28264 19.9975 10.0008 19.9975C12.7189 19.9975 13.0576 19.9844 14.1214 19.9394C15.1864 19.8869 15.912 19.7175 16.5495 19.4738C17.2167 19.2219 17.821 18.8275 18.3201 18.3181C18.8316 17.8207 19.2263 17.2159 19.4758 16.5475C19.7201 15.91 19.8889 15.1844 19.9414 14.1194C19.9895 13.055 19.9995 12.7169 19.9995 9.99875C19.9995 7.28063 19.9864 6.94187 19.9414 5.87812C19.8889 4.81312 19.7195 4.08375 19.4758 3.45C19.2239 2.78279 18.8295 2.17854 18.3201 1.67938C17.8227 1.16793 17.2179 0.773237 16.5495 0.52375C15.912 0.27625 15.1864 0.110625 14.1214 0.058125C13.057 0.01 12.7189 0 10.0008 0ZM10.0008 1.8C12.6701 1.8 12.9889 1.81313 14.0439 1.85812C15.017 1.90375 15.547 2.06625 15.8989 2.20375C16.3339 2.36433 16.7276 2.61991 17.0514 2.95187C17.3828 3.27427 17.6374 3.66709 17.7964 4.10125C17.9339 4.45312 18.0964 4.98312 18.142 5.95625C18.187 7.01125 18.2001 7.33062 18.2001 9.99937C18.2001 12.6681 18.187 12.9875 18.1383 14.0425C18.0858 15.0156 17.9233 15.5456 17.7864 15.8975C17.597 16.3669 17.3858 16.695 17.037 17.05C16.7122 17.3799 16.3187 17.6342 15.8845 17.795C15.537 17.9325 14.9995 18.095 14.0226 18.1406C12.962 18.1856 12.6495 18.1987 9.97326 18.1987C7.29701 18.1987 6.98514 18.1856 5.92326 18.1369C4.95014 18.0844 4.41326 17.9219 4.06139 17.785C3.58639 17.5956 3.26076 17.3844 2.91201 17.0356C2.56014 16.6838 2.33639 16.3487 2.16389 15.8831C2.02389 15.5356 1.86389 14.9981 1.81201 14.0212C1.77639 12.9731 1.75951 12.6481 1.75951 9.98438C1.75951 7.32188 1.77639 6.99625 1.81201 5.935C1.86389 4.95813 2.02389 4.42188 2.16389 4.07312C2.33639 3.5975 2.56076 3.2725 2.91201 2.92062C3.26014 2.5725 3.58639 2.3475 4.06139 2.17125C4.41326 2.03437 4.93701 1.87188 5.91389 1.82313C6.97451 1.785 7.28701 1.77125 9.95951 1.77125L10.0008 1.8ZM10.0008 4.86688C9.3266 4.86663 8.659 4.99923 8.03611 5.25711C7.41322 5.51499 6.84725 5.89308 6.37055 6.36978C5.89384 6.84649 5.51575 7.41246 5.25787 8.03535C5 8.65824 4.86739 9.32584 4.86764 10C4.86739 10.6742 5 11.3418 5.25787 11.9647C5.51575 12.5875 5.89384 13.1535 6.37055 13.6302C6.84725 14.1069 7.41322 14.485 8.03611 14.7429C8.659 15.0008 9.3266 15.1334 10.0008 15.1331C10.6749 15.1334 11.3425 15.0008 11.9654 14.7429C12.5883 14.485 13.1543 14.1069 13.631 13.6302C14.1077 13.1535 14.4858 12.5875 14.7437 11.9647C15.0015 11.3418 15.1341 10.6742 15.1339 10C15.1341 9.32584 15.0015 8.65824 14.7437 8.03535C14.4858 7.41246 14.1077 6.84649 13.631 6.36978C13.1543 5.89308 12.5883 5.51499 11.9654 5.25711C11.3425 4.99923 10.6749 4.86663 10.0008 4.86688ZM10.0008 13.3331C8.15826 13.3331 6.66764 11.8425 6.66764 10C6.66764 8.1575 8.15826 6.66687 10.0008 6.66687C11.8433 6.66687 13.3339 8.1575 13.3339 10C13.3339 11.8425 11.8433 13.3331 10.0008 13.3331ZM16.5408 4.66188C16.5404 4.98042 16.4137 5.2858 16.1883 5.51092C15.9629 5.73605 15.6574 5.8625 15.3389 5.8625C15.1814 5.8625 15.0254 5.83148 14.8799 5.7712C14.7344 5.71093 14.6022 5.62258 14.4908 5.51121C14.3794 5.39984 14.2911 5.26762 14.2308 5.12211C14.1705 4.97659 14.1395 4.82063 14.1395 4.66313C14.1395 4.50562 14.1705 4.34966 14.2308 4.20414C14.2911 4.05863 14.3794 3.92641 14.4908 3.81504C14.6022 3.70367 14.7344 3.61532 14.8799 3.55505C15.0254 3.49477 15.1814 3.46375 15.3389 3.46375C15.9995 3.46375 16.5408 4.00125 16.5408 4.66188Z" fill="#207793"/>
</svg>
