<svg width="20" height="20" viewBox="0 0 20 20" fill="none" xmlns="http://www.w3.org/2000/svg">
<path d="M0.125074 10.6342C0.204429 10.8387 0.323423 11.0254 0.475221 11.1838L8.81202 19.5103C8.96748 19.6655 9.15204 19.7887 9.35516 19.8727C9.55828 19.9568 9.77599 20 9.99584 20C10.4399 20 10.8657 19.8238 11.1797 19.5103C11.3351 19.355 11.4584 19.1707 11.5426 18.9678C11.6267 18.7649 11.67 18.5475 11.67 18.3279C11.67 17.8844 11.4936 17.4591 11.1797 17.1455L5.67738 11.6667L18.3326 11.6667C18.7749 11.6667 19.199 11.4913 19.5116 11.179C19.8243 10.8667 20 10.4431 20 10.0014C20 9.55976 19.8243 9.13618 19.5116 8.82388C19.1989 8.51158 18.7749 8.33613 18.3326 8.33613L5.67738 8.33613L11.1797 2.85731C11.3359 2.7025 11.46 2.51832 11.5446 2.31538C11.6293 2.11245 11.6729 1.89479 11.6729 1.67495C11.6729 1.45511 11.6293 1.23745 11.5446 1.03452C11.46 0.831586 11.3359 0.647404 11.1797 0.492593C11.0247 0.336507 10.8403 0.212617 10.6371 0.128072C10.4339 0.0435265 10.216 8.55348e-07 9.99584 8.74591e-07C9.77573 8.93834e-07 9.5578 0.0435266 9.35461 0.128072C9.15143 0.212617 8.96702 0.336507 8.81202 0.492593L0.475221 8.81906C0.323422 8.97744 0.204429 9.16419 0.125073 9.36861C-0.0416936 9.77404 -0.0416936 10.2288 0.125074 10.6342Z" fill="#207793"/>
</svg>
