<svg width="17" height="30" viewBox="0 0 17 30" fill="none" xmlns="http://www.w3.org/2000/svg">
<path d="M8.55903 0C6.21759 0 4.20573 0.820312 2.52344 2.46094C0.841146 4.10156 0 6.07422 0 8.37891V21.6211C0 23.9258 0.841146 25.8984 2.52344 27.5391C4.20573 29.1797 6.21759 30 8.55903 30C10.8808 30 12.8681 29.1797 14.5208 27.5391C16.1736 25.8984 17 23.9258 17 21.6211V8.37891C17 6.07422 16.1736 4.10156 14.5208 2.46094C12.8681 0.820312 10.8808 0 8.55903 0ZM15.1111 21.6211C15.1111 23.418 14.4716 24.9512 13.1927 26.2207C11.9138 27.4902 10.3692 28.125 8.55903 28.125C6.72917 28.125 5.16001 27.4854 3.85156 26.2061C2.54311 24.9268 1.88889 23.3984 1.88889 21.6211V8.37891C1.88889 6.60156 2.54311 5.07324 3.85156 3.79395C5.16001 2.51465 6.72917 1.875 8.55903 1.875C10.3692 1.875 11.9138 2.50977 13.1927 3.7793C14.4716 5.04883 15.1111 6.58203 15.1111 8.37891V21.6211ZM8.51476 5.625C8.24913 5.625 8.02286 5.71777 7.83594 5.90332C7.64902 6.08887 7.55556 6.30859 7.55556 6.5625V11.25C7.55556 11.5039 7.64902 11.7236 7.83594 11.9092C8.02286 12.0947 8.24913 12.1875 8.51476 12.1875C8.78038 12.1875 9.00174 12.0947 9.17882 11.9092C9.3559 11.7236 9.44444 11.5039 9.44444 11.25V6.5625C9.44444 6.30859 9.3559 6.08887 9.17882 5.90332C9.00174 5.71777 8.78038 5.625 8.51476 5.625Z" fill="#207793"/>
</svg>
