<svg width="13" height="18" viewBox="0 0 13 18" fill="none" xmlns="http://www.w3.org/2000/svg">
<path fill-rule="evenodd" clip-rule="evenodd" d="M0.134419 3.96663C1.85507 8.66209 4.22255 13.1058 7.43978 17.2093C8.15426 18.1237 9.44792 18.265 10.3273 17.5274C11.0967 16.8825 11.8704 16.2376 12.6398 15.5926C13.0456 15.2525 13.1133 14.6297 12.792 14.2012L10.9445 11.732C10.7838 11.5156 10.564 11.3875 10.3019 11.3566C10.0398 11.3257 9.80304 11.3963 9.59588 11.5686L8.12889 12.7966C6.57735 10.5129 5.25832 8.08786 4.14645 5.53473L5.87133 4.8324C6.11653 4.7308 6.29832 4.55412 6.39978 4.29792C6.50548 4.04614 6.50548 3.78553 6.40824 3.52933L5.28369 0.622828C5.08922 0.11927 4.53962 -0.128092 4.05344 0.066264C3.14873 0.441724 2.23133 0.817184 1.31393 1.18823C0.25702 1.61669 -0.271435 2.86234 0.134419 3.96663Z" fill="#207793"/>
</svg>
