<svg width="20" height="20" viewBox="0 0 20 20" fill="none" xmlns="http://www.w3.org/2000/svg">
<path d="M19.8749 9.36577C19.7956 9.16135 19.6766 8.9746 19.5248 8.81622L11.188 0.489749C11.0325 0.33448 10.848 0.211313 10.6448 0.127282C10.4417 0.0432509 10.224 0 10.0042 0C9.56014 0 9.1343 0.176168 8.82033 0.489749C8.66487 0.645019 8.54155 0.829351 8.45741 1.03222C8.37328 1.23509 8.32998 1.45252 8.32998 1.67211C8.32998 2.11558 8.50636 2.54089 8.82033 2.85447L14.3226 8.33329H1.66736C1.22515 8.33329 0.801049 8.50874 0.488359 8.82104C0.175668 9.13334 0 9.55692 0 9.99858C0 10.4402 0.175668 10.8638 0.488359 11.1761C0.801049 11.4884 1.22515 11.6639 1.66736 11.6639H14.3226L8.82033 17.1427C8.66405 17.2975 8.54001 17.4817 8.45536 17.6846C8.37071 17.8875 8.32713 18.1052 8.32713 18.3251C8.32713 18.5449 8.37071 18.7626 8.45536 18.9655C8.54001 19.1684 8.66405 19.3526 8.82033 19.5074C8.97534 19.6635 9.15975 19.7874 9.36293 19.8719C9.56611 19.9565 9.78405 20 10.0042 20C10.2243 20 10.4422 19.9565 10.6454 19.8719C10.8486 19.7874 11.033 19.6635 11.188 19.5074L19.5248 11.1809C19.6766 11.0226 19.7956 10.8358 19.8749 10.6314C20.0417 10.226 20.0417 9.7712 19.8749 9.36577Z" fill="#207793"/>
</svg>
